<svg width="28" height="28" viewBox="0 0 28 28" fill="none" xmlns="http://www.w3.org/2000/svg">
<path d="M13.4604 2.40042C13.545 2.38001 13.6587 2.35667 13.7156 2.34938C13.7725 2.34063 13.9256 2.33772 14.0583 2.34063C14.2246 2.34501 14.3412 2.35522 14.4375 2.37563C14.5133 2.39167 14.6285 2.4223 14.6927 2.44272C14.7569 2.46313 14.875 2.51272 14.9552 2.55063C15.0354 2.58855 15.1477 2.6498 15.2031 2.68626C15.2585 2.72126 15.3665 2.80292 15.4423 2.86709C15.5181 2.9298 15.6217 3.03188 15.6742 3.09167C15.7252 3.15147 15.804 3.25647 15.8506 3.32501C15.8958 3.39355 15.96 3.50438 15.9935 3.57292C16.0271 3.64147 16.0767 3.76542 16.1058 3.85001C16.1335 3.93459 16.1685 4.05855 16.1831 4.12709C16.2035 4.2248 16.2094 4.31667 16.2094 4.5573C16.2094 4.79792 16.2035 4.8898 16.1831 4.98751C16.1685 5.05605 16.135 5.17709 16.1087 5.2573C16.081 5.33751 16.03 5.46438 15.9921 5.53876C15.9556 5.61167 15.9031 5.70792 15.8754 5.75022C15.8477 5.79105 15.7981 5.86251 15.766 5.90626C15.7325 5.95001 15.6552 6.03897 15.5925 6.10167C15.5312 6.16438 15.4306 6.25626 15.3708 6.30438C15.311 6.35251 15.2031 6.42688 15.1302 6.46917C15.0573 6.51147 14.9333 6.57417 14.8531 6.60772C14.7729 6.64126 14.6344 6.68647 14.5469 6.7098C14.4594 6.73167 14.2975 6.75792 14.1896 6.76813C14.0321 6.78272 13.9548 6.78272 13.8031 6.76813C13.6996 6.75792 13.5406 6.73167 13.4531 6.7098C13.3656 6.68647 13.2271 6.64126 13.1469 6.60772C13.0667 6.57417 12.9485 6.51584 12.8844 6.47792C12.8202 6.44001 12.7298 6.38167 12.6846 6.34813C12.6379 6.31313 12.5592 6.24751 12.5096 6.2023C12.4585 6.15563 12.3769 6.07251 12.3258 6.01563C12.2748 5.96022 12.199 5.86105 12.1567 5.79688C12.1144 5.73272 12.0473 5.61751 12.0094 5.54167C11.9715 5.46584 11.919 5.33751 11.8912 5.2573C11.865 5.17709 11.8315 5.05605 11.8169 4.98751C11.7965 4.8898 11.7906 4.79792 11.7906 4.5573C11.7906 4.31667 11.7965 4.2248 11.8169 4.12709C11.8315 4.05855 11.8665 3.93459 11.8942 3.85001C11.9233 3.76542 11.9729 3.64147 12.0065 3.57292C12.04 3.50438 12.1042 3.39355 12.1494 3.32501C12.196 3.25647 12.2748 3.15147 12.3258 3.09167C12.3783 3.03188 12.4819 2.9298 12.5577 2.86709C12.6335 2.80292 12.7385 2.72272 12.7925 2.68772C12.8479 2.65272 12.9369 2.60167 12.9937 2.57397C13.0506 2.54626 13.144 2.50397 13.2008 2.48063C13.2592 2.4573 13.3758 2.4223 13.4604 2.40042Z" fill="#007AFF"/>
<path d="M7.59791 3.85292C7.65041 3.82813 7.72916 3.79751 7.77291 3.78584C7.84145 3.76834 8.12875 3.76397 11.4479 3.76251L11.4115 3.89813C11.3925 3.97105 11.3648 4.10813 11.3517 4.20001C11.3342 4.32834 11.3298 4.43042 11.3356 4.63751C11.3415 4.84605 11.3517 4.94667 11.3808 5.0823C11.4012 5.17855 11.4231 5.27334 11.4319 5.29376C11.4406 5.31417 11.4421 5.33459 11.4377 5.34188C11.4319 5.34772 10.6342 5.35209 9.66291 5.35209C8.13895 5.35209 7.88229 5.34917 7.79479 5.32876C7.73791 5.31709 7.65041 5.28501 7.59791 5.2573C7.54541 5.22959 7.46958 5.17563 7.42875 5.13772C7.38937 5.0998 7.33104 5.03126 7.30187 4.98751C7.2727 4.94376 7.23479 4.86792 7.21729 4.8198C7.20125 4.77167 7.18375 4.6798 7.17937 4.61563C7.17354 4.54709 7.17791 4.45959 7.18812 4.40417C7.19833 4.35167 7.23041 4.2598 7.25958 4.20001C7.29604 4.12272 7.33979 4.06292 7.40687 3.99438C7.46812 3.93459 7.53812 3.88209 7.59791 3.85292Z" fill="#007AFF"/>
<path d="M16.6483 4.20001C16.6352 4.10813 16.609 3.97105 16.59 3.89813L16.5565 3.76251H18.3444C19.9004 3.76251 20.144 3.76542 20.2198 3.78438C20.2679 3.79751 20.3496 3.82813 20.4021 3.85292C20.4619 3.88209 20.5319 3.93459 20.5931 3.99438C20.6602 4.06292 20.704 4.12272 20.7404 4.20001C20.7696 4.2598 20.8017 4.35167 20.8119 4.40417C20.8221 4.45959 20.8265 4.54709 20.8206 4.61563C20.8162 4.6798 20.7987 4.77167 20.7827 4.8198C20.7652 4.86792 20.7273 4.94376 20.6981 4.98751C20.669 5.03126 20.6106 5.0998 20.5712 5.13772C20.5304 5.17563 20.4546 5.22959 20.4021 5.2573C20.3496 5.28501 20.2606 5.31709 20.2052 5.32876C20.1177 5.34917 19.8596 5.35209 18.3385 5.35209C17.3687 5.35209 16.5696 5.34772 16.5637 5.34188C16.5579 5.33459 16.5594 5.31417 16.5681 5.29376C16.5769 5.27334 16.5987 5.17855 16.6192 5.0823C16.6483 4.94667 16.6585 4.84605 16.6644 4.63751C16.6702 4.43042 16.6658 4.32834 16.6483 4.20001Z" fill="#007AFF"/>
<path d="M11.3035 6.59313C11.3867 6.54063 11.5617 6.44438 11.6929 6.37876L11.9306 6.25772L12.094 6.42251C12.1829 6.51292 12.3127 6.62959 12.3812 6.68063C12.4483 6.73167 12.546 6.79876 12.5956 6.82938C12.6452 6.86001 12.7502 6.91688 12.829 6.95626C12.9077 6.99563 13.0506 7.05397 13.1469 7.08605C13.2431 7.11813 13.3875 7.15897 13.4677 7.17501C13.5479 7.19105 13.6981 7.21147 13.8031 7.22022C13.9431 7.23334 14.0437 7.23334 14.1896 7.22022C14.2975 7.21147 14.4521 7.19105 14.5323 7.17501C14.6125 7.15897 14.7569 7.11813 14.8531 7.08605C14.9494 7.05397 15.0908 6.99563 15.1696 6.95626C15.2483 6.91688 15.3533 6.86001 15.4029 6.82938C15.4525 6.79876 15.5502 6.73167 15.6187 6.68063C15.6858 6.62959 15.8156 6.51292 16.0708 6.25772L16.3071 6.3773C16.4369 6.44438 16.6119 6.54063 16.695 6.59313C16.7781 6.64417 16.9415 6.75938 17.0596 6.84688C17.2142 6.96209 17.3483 7.08313 17.5437 7.27709C17.6954 7.42876 17.8704 7.62126 17.9433 7.71605C18.0133 7.80792 18.1125 7.94501 18.1635 8.0223C18.2131 8.09813 18.2962 8.2323 18.3458 8.32126C18.3969 8.40876 18.4756 8.56334 18.5208 8.66397C18.5675 8.76313 18.6273 8.90751 18.6565 8.9848C18.6842 9.06063 18.7308 9.19772 18.7585 9.29105C18.7862 9.38292 18.8256 9.53313 18.846 9.62647C18.8665 9.71834 18.8985 9.88459 18.9496 10.2025L18.954 13.5275C18.9583 15.8652 18.9554 16.9065 18.9437 17.0348C18.935 17.134 18.9146 17.2988 18.8985 17.3994C18.8825 17.4985 18.8504 17.6604 18.8271 17.7567C18.8037 17.8515 18.7527 18.0294 18.7119 18.1504C18.6725 18.27 18.6083 18.4377 18.5719 18.5223C18.534 18.6054 18.4581 18.7629 18.4012 18.8723C18.3458 18.9802 18.2379 19.1596 18.1635 19.2733C18.0892 19.3856 17.9696 19.549 17.8981 19.6365C17.8267 19.7254 17.6969 19.8727 17.6065 19.9646C17.5175 20.0579 17.3717 20.195 17.2812 20.2723C17.1923 20.3481 17.0421 20.4648 16.9473 20.5319C16.854 20.599 16.7067 20.6952 16.6206 20.7477C16.5346 20.7988 16.3917 20.876 16.3042 20.9213C16.2152 20.965 16.0869 21.0233 16.0198 21.0525C15.9512 21.0802 15.8915 21.1035 15.8885 21.1035C15.8842 21.1035 15.8783 20.4123 15.8769 19.5679C15.8725 18.1606 15.8696 18.0236 15.8462 17.9244C15.8317 17.8631 15.801 17.7552 15.7762 17.6838C15.7529 17.6108 15.7019 17.4927 15.664 17.4213C15.6275 17.3483 15.5575 17.2375 15.5108 17.1733C15.4627 17.1077 15.381 17.0129 15.3271 16.9604C15.2746 16.9065 15.1798 16.8248 15.1156 16.7781C15.0515 16.73 14.9392 16.66 14.8677 16.6235C14.7948 16.5856 14.6796 16.536 14.6125 16.5127C14.544 16.4879 14.4317 16.4573 14.3646 16.4427C14.2727 16.4223 14.1779 16.415 14 16.415C13.8206 16.415 13.7273 16.4223 13.6354 16.4427C13.5669 16.4573 13.4546 16.4879 13.3875 16.5127C13.319 16.536 13.2037 16.5856 13.1323 16.6235C13.0594 16.66 12.9485 16.73 12.8844 16.7781C12.8202 16.8248 12.724 16.9065 12.6715 16.9604C12.619 17.0129 12.5358 17.1077 12.4892 17.1733C12.441 17.2375 12.371 17.3483 12.3346 17.4213C12.2967 17.4927 12.2471 17.6108 12.2223 17.6838C12.199 17.7552 12.1669 17.8631 12.1523 17.9244C12.129 18.0236 12.126 18.1606 12.1231 19.5679C12.1202 20.4123 12.1144 21.1035 12.1115 21.1035C12.1071 21.1035 12.0473 21.0802 11.9802 21.0525C11.9117 21.0233 11.7833 20.965 11.6958 20.9213C11.6069 20.876 11.464 20.7988 11.3779 20.7477C11.2919 20.6952 11.1446 20.599 11.0512 20.5319C10.9565 20.4648 10.8062 20.3481 10.7173 20.2723C10.6269 20.195 10.481 20.0579 10.3921 19.9646C10.3031 19.8727 10.1719 19.7254 10.1004 19.6365C10.029 19.549 9.91083 19.3856 9.835 19.2733C9.76062 19.1596 9.6527 18.9802 9.59729 18.8723C9.54041 18.7629 9.46458 18.6054 9.42666 18.5223C9.3902 18.4377 9.3275 18.27 9.28666 18.1504C9.24583 18.0294 9.19479 17.8515 9.17145 17.7567C9.14812 17.6604 9.11604 17.4985 9.1 17.3994C9.08395 17.2988 9.06354 17.134 9.05479 17.0348C9.04458 16.9065 9.0402 15.8681 9.04458 13.5275C9.04895 10.519 9.05187 10.1865 9.07375 10.0494C9.08687 9.9648 9.10875 9.83938 9.12187 9.7723C9.135 9.70376 9.16125 9.58272 9.18166 9.50251C9.20208 9.4223 9.24145 9.28376 9.27062 9.19626C9.29833 9.1073 9.34791 8.97022 9.38 8.89001C9.41062 8.8098 9.47479 8.66542 9.52145 8.56917C9.56812 8.47147 9.65854 8.30813 9.72125 8.20313C9.78395 8.09959 9.88604 7.94501 9.94729 7.86042C10.0085 7.7773 10.1106 7.64605 10.1748 7.57022C10.239 7.49292 10.3892 7.33542 10.5087 7.22022C10.6312 7.10063 10.8194 6.93876 10.939 6.84834C11.0571 6.75938 11.2204 6.64417 11.3035 6.59313Z" fill="#007AFF"/>
<path d="M13.5115 16.9196C13.5669 16.9021 13.6456 16.8817 13.6865 16.8744C13.7258 16.8671 13.8862 16.8627 14.0437 16.8656C14.3019 16.87 14.3398 16.8744 14.455 16.9094C14.525 16.9298 14.63 16.9706 14.6883 16.9998C14.7467 17.029 14.8371 17.0844 14.8896 17.1223C14.9406 17.1602 15.0223 17.2331 15.0704 17.2842C15.1171 17.3352 15.174 17.4038 15.1958 17.4358C15.2177 17.4679 15.2629 17.5496 15.2965 17.6181C15.3285 17.6867 15.3708 17.7975 15.4219 17.99V24.5379L15.3883 24.6619C15.3708 24.7304 15.3227 24.8515 15.2833 24.9317C15.2425 25.0119 15.171 25.1256 15.1229 25.1825C15.0748 25.2408 14.9873 25.3269 14.929 25.3721C14.8706 25.4188 14.7715 25.4844 14.7073 25.5179C14.6431 25.5515 14.5308 25.5967 14.4594 25.6185C14.3325 25.6579 14.3165 25.6594 14 25.6594C13.6821 25.6594 13.6675 25.6579 13.5406 25.6185C13.4677 25.5967 13.3569 25.5515 13.2927 25.5179C13.2285 25.4844 13.1279 25.4188 13.0696 25.3721C13.0112 25.3269 12.9252 25.2408 12.8771 25.1825C12.829 25.1256 12.756 25.0119 12.7167 24.9317C12.6758 24.8515 12.6292 24.7304 12.5781 24.5379V17.99L12.6102 17.866C12.6292 17.7975 12.67 17.6867 12.7035 17.6181C12.7356 17.5496 12.7808 17.4679 12.8027 17.4358C12.8246 17.4038 12.8815 17.3352 12.9296 17.2842C12.9762 17.2331 13.0579 17.1602 13.1104 17.1223C13.1615 17.0844 13.2504 17.029 13.3073 17.0013C13.3627 16.9735 13.4546 16.9356 13.5115 16.9196Z" fill="#007AFF"/>
</svg>
